<?xml version="1.0" encoding="UTF-8"?>
<svg xmlns="http://www.w3.org/2000/svg" width="100" height="100">
<rect x="3" y="3" rx="10" ry="10" width="94" height="94" style="fill:#FFF;stroke:#00F;stroke-width:6;"/>
<path transform="translate(13,8)" d="M 33.367 10.431 L 14.213 10.431 L 14.213 16.043 L 29.707 16.043 L 29.707 26.474 L 14.213 26.474 L 14.213 40.26 L 0 40.26 L 0 0 L 33.367 0 L 33.367 10.431 Z M 37.454 40.26 L 37.454 0 L 60.512 0 A 35.59 35.59 0 0 1 64.492 0.239 Q 68.76 0.756 71.358 2.381 A 9.903 9.903 0 0 1 71.858 2.715 A 8.598 8.598 0 0 1 75.401 8.517 A 13.199 13.199 0 0 1 75.579 10.736 Q 75.579 14.457 73.292 16.928 Q 71.298 19.08 67.615 19.82 A 17.837 17.837 0 0 1 66.49 20.008 L 66.49 20.069 Q 71.614 20.618 74.115 23.119 Q 76.616 25.62 76.616 29.646 A 12.41 12.41 0 0 1 76.229 32.843 A 8.434 8.434 0 0 1 73.017 37.607 A 11.491 11.491 0 0 1 69.794 39.223 Q 66.673 40.26 62.098 40.26 L 37.454 40.26 Z M 51.057 30.988 L 58.316 30.988 Q 61.787 30.988 62.072 28.47 A 4.185 4.185 0 0 0 62.098 27.999 A 3.046 3.046 0 0 0 61.835 26.686 Q 61.229 25.403 59.225 25.179 A 8.208 8.208 0 0 0 58.316 25.132 L 51.057 25.132 L 51.057 30.988 Z M 51.057 15.616 L 57.279 15.616 Q 60.798 15.616 61.043 13.082 A 4.091 4.091 0 0 0 61.061 12.688 Q 61.061 9.76 57.279 9.76 L 51.057 9.76 L 51.057 15.616 Z"/>
<path transform="translate(13,51)" d="M 72.956 6.405 L 66.734 15.25 Q 63.989 12.688 61.153 11.56 A 15.925 15.925 0 0 0 56.95 10.541 A 19.719 19.719 0 0 0 54.839 10.431 A 11.599 11.599 0 0 0 53.501 10.503 Q 52.849 10.579 52.303 10.735 A 5.08 5.08 0 0 0 51.423 11.072 A 3.409 3.409 0 0 0 50.848 11.428 Q 50.544 11.665 50.372 11.942 A 1.495 1.495 0 0 0 50.142 12.749 A 0.737 0.737 0 0 0 50.384 13.286 Q 50.625 13.524 51.108 13.702 A 4.377 4.377 0 0 0 51.362 13.786 A 15.034 15.034 0 0 0 52.086 13.981 Q 53.345 14.289 55.632 14.701 A 52.352 52.352 0 0 1 60.214 15.721 Q 64.747 16.963 67.438 18.805 A 12.577 12.577 0 0 1 68.35 19.49 A 10.431 10.431 0 0 1 72.064 26.24 A 15.21 15.21 0 0 1 72.224 28.487 A 12.046 12.046 0 0 1 71.666 32.219 A 10.289 10.289 0 0 1 69.845 35.563 Q 67.466 38.491 63.379 39.986 Q 59.292 41.48 54.229 41.48 Q 47.132 41.48 42.869 40.153 A 18.795 18.795 0 0 1 42.822 40.138 A 27.174 27.174 0 0 1 37.037 37.514 A 33.133 33.133 0 0 1 34.465 35.807 L 40.565 26.169 A 17.534 17.534 0 0 0 44.138 28.887 A 15.517 15.517 0 0 0 46.177 29.86 A 16.949 16.949 0 0 0 49.898 30.822 A 22.808 22.808 0 0 0 53.192 31.049 Q 56.727 31.049 57.456 29.896 A 1.24 1.24 0 0 0 57.645 29.219 A 1.229 1.229 0 0 0 57.177 28.254 Q 56.974 28.08 56.682 27.937 A 3.903 3.903 0 0 0 56.242 27.755 A 12.545 12.545 0 0 0 55.43 27.507 Q 54.5 27.254 53.121 26.985 A 69.594 69.594 0 0 0 51.667 26.718 A 77.513 77.513 0 0 1 48.383 26.043 Q 45.807 25.452 43.768 24.766 Q 40.504 23.668 38.034 21.045 A 8.727 8.727 0 0 1 35.94 17.124 Q 35.598 15.774 35.566 14.18 A 16.553 16.553 0 0 1 35.563 13.847 A 13.213 13.213 0 0 1 36.219 9.621 A 11.663 11.663 0 0 1 37.759 6.588 A 12.794 12.794 0 0 1 41.302 3.236 A 17.499 17.499 0 0 1 44.195 1.739 A 21.777 21.777 0 0 1 48.551 0.491 Q 51.236 0 54.412 0 A 42.527 42.527 0 0 1 58.936 0.227 Q 61.1 0.459 62.965 0.928 A 22.546 22.546 0 0 1 64.599 1.403 Q 68.746 2.786 72.834 6.3 A 35.305 35.305 0 0 1 72.956 6.405 Z M 14.213 30.439 L 32.452 30.439 L 32.452 40.87 L 0 40.87 L 0 0.61 L 14.213 0.61 L 14.213 30.439 Z"/>
</svg>